<svg width="39" height="38" viewBox="0 0 39 38" fill="none" xmlns="http://www.w3.org/2000/svg">
<path d="M36.5625 17.2599H26.1669L35.1695 12.1948L33.3842 9.18017L24.3805 14.2453L29.5772 5.47279L26.4842 3.73271L21.2864 12.5029V2.375H17.7136V12.5041L12.5158 3.73271L9.4217 5.47279L14.6183 14.243L5.61689 9.18017L3.83047 12.1948L12.8331 17.2599H2.4375V20.7412H12.8319L3.83047 25.8063L5.61575 28.8209L14.6195 23.7559L9.4217 32.5283L12.5147 34.2684L17.7136 25.497V35.625H21.2864V25.2798L26.5797 34.213L29.4805 32.5815L24.1861 23.6461L33.382 28.8198L35.1684 25.8052L26.1669 20.7401H36.5614V17.2599H36.5625V17.2599ZM19.5 23.7326C18.8622 23.7327 18.2307 23.6103 17.6414 23.3725C17.0521 23.1346 16.5167 22.786 16.0657 22.3465C15.6146 21.907 15.2568 21.3852 15.0127 20.8109C14.7686 20.2366 14.6429 19.6211 14.6428 18.9994C14.6427 18.3778 14.7683 17.7622 15.0123 17.1879C15.2563 16.6136 15.6139 16.0917 16.0649 15.6521C16.5158 15.2124 17.0511 14.8637 17.6403 14.6257C18.2296 14.3878 18.8611 14.2653 19.4989 14.2652C20.7869 14.2651 22.0223 14.7636 22.9332 15.6513C23.8441 16.5389 24.3559 17.7429 24.3561 18.9983C24.3562 20.2538 23.8447 21.4579 22.934 22.3457C22.0233 23.2336 20.7881 23.7324 19.5 23.7326V23.7326Z" fill="#606DE5"/>
</svg>
