<svg width="145" height="38" viewBox="0 0 145 38" fill="none" xmlns="http://www.w3.org/2000/svg">
<path d="M36.5625 17.2599H26.1669L35.1695 12.1948L33.3842 9.18017L24.3805 14.2453L29.5772 5.47279L26.4842 3.73271L21.2864 12.5029V2.375H17.7136V12.5041L12.5158 3.73271L9.4217 5.47279L14.6183 14.243L5.61689 9.18017L3.83047 12.1948L12.8331 17.2599H2.4375V20.7412H12.8319L3.83047 25.8063L5.61575 28.8209L14.6195 23.7559L9.4217 32.5283L12.5147 34.2684L17.7136 25.497V35.625H21.2864V25.2798L26.5797 34.213L29.4805 32.5815L24.1861 23.6461L33.382 28.8198L35.1684 25.8052L26.1669 20.7401H36.5614V17.2599H36.5625V17.2599ZM19.5 23.7326C18.8622 23.7327 18.2307 23.6103 17.6414 23.3725C17.0521 23.1346 16.5167 22.786 16.0657 22.3465C15.6146 21.907 15.2568 21.3852 15.0127 20.8109C14.7686 20.2366 14.6429 19.6211 14.6428 18.9994C14.6427 18.3778 14.7683 17.7622 15.0123 17.1879C15.2563 16.6136 15.6139 16.0917 16.0649 15.6521C16.5158 15.2124 17.0511 14.8637 17.6403 14.6257C18.2296 14.3878 18.8611 14.2653 19.4989 14.2652C20.7869 14.2651 22.0223 14.7636 22.9332 15.6513C23.8441 16.5389 24.3559 17.7429 24.3561 18.9983C24.3562 20.2538 23.8447 21.4579 22.934 22.3457C22.0233 23.2336 20.7881 23.7324 19.5 23.7326V23.7326Z" fill="#606DE5"/>
<path d="M57.5781 26.1953C57.2266 26.1823 56.9271 26.0586 56.6797 25.8242C56.4323 25.5768 56.3021 25.2773 56.2891 24.9258V20.0625C56.3021 19.138 56.4323 18.2656 56.6797 17.4453C56.9401 16.625 57.3633 15.9349 57.9492 15.375C58.5482 14.8021 59.3034 14.4896 60.2148 14.4375H67.7539C68.1055 14.4505 68.3984 14.5807 68.6328 14.8281C68.8802 15.0625 69.0104 15.3555 69.0234 15.707C69.0234 16.0716 68.8997 16.3841 68.6523 16.6445C68.418 16.9049 68.1185 17.0417 67.7539 17.0547H60.8789C60.3841 17.0807 59.974 17.2695 59.6484 17.6211C59.3229 17.9727 59.1146 18.3763 59.0234 18.832C58.9453 19.2747 58.9128 19.763 58.9258 20.2969V24.9258C58.9128 25.2904 58.776 25.5964 58.5156 25.8438C58.2552 26.0781 57.9427 26.1953 57.5781 26.1953ZM59.8438 21.0586C59.8438 20.694 59.974 20.388 60.2344 20.1406C60.4818 19.8802 60.7878 19.75 61.1523 19.75H67.7539C68.1185 19.75 68.4245 19.8802 68.6719 20.1406C68.9323 20.388 69.0625 20.694 69.0625 21.0586C69.0625 21.4232 68.9388 21.7357 68.6914 21.9961C68.431 22.2435 68.1185 22.3672 67.7539 22.3672H61.1523C60.7878 22.3672 60.4753 22.2435 60.2148 21.9961C59.9674 21.7357 59.8438 21.4232 59.8438 21.0586ZM70.4297 24.6523C70.4297 24.2878 70.5534 23.9818 70.8008 23.7344C71.0612 23.474 71.3737 23.3438 71.7383 23.3438H75.4883V17.0547H71.7383C71.3737 17.0547 71.0677 16.9245 70.8203 16.6641C70.5599 16.4167 70.4297 16.1107 70.4297 15.7461C70.4297 15.3815 70.5534 15.0755 70.8008 14.8281C71.0612 14.5677 71.3737 14.4375 71.7383 14.4375H81.8555C82.2201 14.4375 82.5326 14.5612 82.793 14.8086C83.0404 15.069 83.1641 15.3815 83.1641 15.7461C83.1641 16.1107 83.0339 16.4232 82.7734 16.6836C82.526 16.931 82.2201 17.0547 81.8555 17.0547H78.125V23.3438H81.8555C82.2201 23.3438 82.5326 23.4674 82.793 23.7148C83.0404 23.9753 83.1641 24.2878 83.1641 24.6523C83.1641 25.0169 83.0339 25.3294 82.7734 25.5898C82.526 25.8372 82.2201 25.9609 81.8555 25.9609H71.7383C71.3737 25.9609 71.0677 25.8307 70.8203 25.5703C70.5599 25.3229 70.4297 25.0169 70.4297 24.6523ZM84.8047 15.7461C84.8047 15.3815 84.9284 15.0755 85.1758 14.8281C85.4362 14.5677 85.7487 14.4375 86.1133 14.4375H97.4805C97.8451 14.4375 98.1576 14.5612 98.418 14.8086C98.6654 15.069 98.7891 15.3815 98.7891 15.7461C98.7891 16.1107 98.6589 16.4232 98.3984 16.6836C98.151 16.931 97.8451 17.0547 97.4805 17.0547H93.125V24.9648C93.0469 25.7461 92.6172 26.1693 91.8359 26.2344C91.4714 26.2344 91.1523 26.1172 90.8789 25.8828C90.6185 25.6354 90.4883 25.3294 90.4883 24.9648V17.0547H86.1133C85.7487 17.0547 85.4427 16.9245 85.1953 16.6641C84.9349 16.4167 84.8047 16.1107 84.8047 15.7461ZM104.551 14.4375H112.793C113.158 14.4505 113.457 14.5872 113.691 14.8477C113.939 15.1081 114.062 15.4206 114.062 15.7852C113.997 16.5664 113.574 16.9896 112.793 17.0547H105.215C104.72 17.0807 104.31 17.2695 103.984 17.6211C103.659 17.9727 103.418 18.3763 103.262 18.832C103.118 19.2747 103.047 19.7305 103.047 20.1992C103.047 20.668 103.118 21.1302 103.262 21.5859C103.418 22.0286 103.659 22.4258 103.984 22.7773C104.31 23.1289 104.72 23.3177 105.215 23.3438H111.152C111.387 23.3307 111.51 23.2005 111.523 22.9531V21.8203C111.51 21.5599 111.387 21.4297 111.152 21.4297H106.152C105.788 21.4297 105.475 21.306 105.215 21.0586C104.967 20.7982 104.844 20.4857 104.844 20.1211C104.844 19.7565 104.967 19.444 105.215 19.1836C105.475 18.9362 105.788 18.8125 106.152 18.8125H112.832C113.197 18.8125 113.509 18.9362 113.77 19.1836C114.004 19.431 114.128 19.7305 114.141 20.082V20.1211V24.6914C114.128 25.043 114.004 25.3359 113.77 25.5703C113.522 25.8177 113.223 25.9479 112.871 25.9609H104.551C103.639 25.9089 102.884 25.5638 102.285 24.9258C101.699 24.2747 101.276 23.5391 101.016 22.7188C100.768 21.8984 100.645 21.0586 100.645 20.1992C100.645 19.3398 100.775 18.5 101.035 17.6797C101.296 16.8594 101.719 16.1302 102.305 15.4922C102.891 14.8411 103.639 14.4896 104.551 14.4375ZM120.195 14.4375H121.094H127.734C128.099 14.4505 128.398 14.5872 128.633 14.8477C128.88 15.1081 129.004 15.4206 129.004 15.7852C128.939 16.5664 128.516 16.9896 127.734 17.0547H120.859C120.365 17.0807 119.954 17.2695 119.629 17.6211C119.303 17.9727 119.062 18.3763 118.906 18.832C118.763 19.2747 118.691 19.7305 118.691 20.1992C118.691 20.668 118.763 21.1302 118.906 21.5859C119.062 22.0286 119.303 22.4258 119.629 22.7773C119.954 23.1289 120.365 23.3177 120.859 23.3438H127.734C128.099 23.3568 128.398 23.4935 128.633 23.7539C128.88 24.0143 129.004 24.3268 129.004 24.6914C128.991 25.043 128.861 25.3424 128.613 25.5898C128.379 25.8242 128.086 25.9479 127.734 25.9609H120.566H120.195C119.284 25.9089 118.529 25.5638 117.93 24.9258C117.344 24.2747 116.921 23.5391 116.66 22.7188C116.413 21.8984 116.289 21.0586 116.289 20.1992C116.289 19.3398 116.419 18.5 116.68 17.6797C116.94 16.8594 117.363 16.1302 117.949 15.4922C118.535 14.8411 119.284 14.4896 120.195 14.4375ZM128.965 20.1211C128.965 20.4857 128.835 20.7917 128.574 21.0391C128.327 21.2995 128.021 21.4297 127.656 21.4297H121.758C121.393 21.4297 121.081 21.306 120.82 21.0586C120.573 20.7982 120.449 20.4857 120.449 20.1211C120.449 19.7565 120.573 19.444 120.82 19.1836C121.081 18.9362 121.393 18.8125 121.758 18.8125H127.656C128.021 18.8125 128.327 18.9427 128.574 19.2031C128.835 19.4505 128.965 19.7565 128.965 20.1211ZM137.188 13.9102C137.865 13.9102 138.529 13.9883 139.18 14.1445C139.844 14.3008 140.475 14.5352 141.074 14.8477C141.673 15.1471 142.201 15.5508 142.656 16.0586C143.125 16.5664 143.379 17.1719 143.418 17.875V18.6953V24.9258C143.34 25.707 142.91 26.1302 142.129 26.1953C141.764 26.1953 141.445 26.0781 141.172 25.8438C140.911 25.5964 140.781 25.2904 140.781 24.9258V18.4805C140.755 18.0768 140.599 17.7448 140.312 17.4844C140.039 17.2109 139.727 16.9961 139.375 16.8398C139.036 16.6836 138.678 16.5664 138.301 16.4883C137.936 16.4102 137.565 16.3711 137.188 16.3711C136.81 16.3711 136.432 16.4102 136.055 16.4883C135.69 16.5664 135.332 16.6836 134.98 16.8398C134.642 16.9961 134.329 17.2109 134.043 17.4844C133.77 17.7448 133.62 18.0768 133.594 18.4805V24.9258C133.529 25.707 133.105 26.1302 132.324 26.1953C131.96 26.1953 131.641 26.0781 131.367 25.8438C131.107 25.5964 130.977 25.2904 130.977 24.9258V18.6953V17.875C131.016 17.1719 131.263 16.5664 131.719 16.0586C132.174 15.5508 132.702 15.1471 133.301 14.8477C133.9 14.5352 134.525 14.3008 135.176 14.1445C135.84 13.9883 136.51 13.9102 137.188 13.9102Z" fill="black"/>
</svg>
